<svg version="1" xmlns="http://www.w3.org/2000/svg" width="2496" height="2496" viewBox="0 0 1872.000000 1872.000000"><path d="M1731.5 664.7c-8.1 1-19.9 3.8-27.5 6.5-43.1 15.2-74.8 53.5-82.5 99.7-2.5 14.8-1.7 37.9 1.8 51.1 13 49.7 51.1 86 100.5 95.7 12.8 2.5 33.7 2.2 47.2-.6 60.9-12.9 103.5-68.2 100.7-130.6-2.8-61.8-46.5-111.1-107.2-121-8.2-1.4-25.5-1.8-33-.8zm27.3 19.3c46.2 5.8 83.9 40.5 93.2 85.8 3.7 18.3 2.4 39.9-3.4 57-22.7 66.7-102.8 94.4-161.8 56-40.2-26.2-58.5-75.5-45.2-121.4 14.8-51.3 64.4-84 117.2-77.4z"/><path d="M1731.3 738.4l-63.3 22.9v15.9c0 12 .3 15.8 1.3 15.8.6 0 9.9-3.4 20.5-7.5 10.7-4.1 19.8-7.5 20.3-7.5s.9 19.7.9 47.6c0 37.7.3 47.5 1.3 47.2.6-.3 19.2-6.9 41.2-14.8 22-7.8 40.3-14.6 40.8-14.9.4-.4.6-29.3.5-64.2l-.3-63.4-63.2 22.9zM276 712.8c0 1.4-40.5 199.9-45.9 224.8-2.7 12.7-7.1 33.8-9.7 47-2.5 13.1-4.8 24.1-5 24.3-1 1-1.6-1.5-3.5-13-6.6-41.6-10.5-59.7-41.7-195.4l-19.8-86-75.3-.3-75.2-.2.7 2.2c.7 2.4 48.7 181.5 101.5 379l30.4 113.8h75.3c41.3 0 75.2-.3 75.2-.6 0-.6 30.9-131.8 69.5-294.9 2.8-12.1 5.6-21.9 6.1-21.8.5.1 3.2 10 6.1 22 6.6 27.6 64.4 272.5 67.4 285.5l2.2 9.8h148.6l1.5-5.3c2.4-8.4 108.6-404.6 108.6-405.2 0-.3.5-.5 1-.5.7 0 1 69.2 1 205.6v205.5l102.3-.4c86.9-.3 104.2-.6 115.7-2 44.7-5.5 77-14.3 108.5-29.7 38.7-18.9 67.5-43.7 89.8-77.5 11.4-17.4 24.6-47.1 29.7-67.3.6-2.3 1.5-4 2-3.7.6.4 1 34.6 1 90.6v89.9h137v-174.2l18.8.5c15 .4 20.3.9 26.7 2.6 15.8 4.3 28.2 12.3 37.6 24.2 2.4 3 23.5 37.3 46.9 76.2l42.5 70.7h73.3c40.4 0 73.2-.4 73-.9-1.7-4.4-94.3-157-100.8-166-10.7-15-21.7-27.9-29.5-34.5-3.3-2.8-6.2-5.5-6.3-6-.2-.4 3.2-2.3 7.5-4.2 18-7.8 33.9-18.7 47.8-32.8 18.4-18.6 29.6-39.9 35.6-67.6 2-9.1 2.3-13.4 2.4-33 0-24.2-.9-31.5-6.1-49-14.7-48.9-56.2-81.7-120.4-95-26.8-5.5-22.6-5.3-158.7-5.7l-126.3-.4-.2 85.8c-.2 47.2-.6 85.1-.9 84.3-.4-.8-2.7-8.1-5.3-16.1-18.9-58.6-59.5-102.4-118.6-127.7-26.4-11.4-55-18.6-94-23.9-11.2-1.5-29.8-1.7-185-2l-172.5-.4-2.2 9.8c-1.3 5.4-12.2 53-24.4 105.8-22.8 99.3-27.1 119.7-33.4 157-3.7 21.6-4.1 23.3-4.9 22.4-.3-.3-3.6-16.2-7.5-35.4-3.9-19.3-8.8-42.9-10.9-52.5-2.1-9.6-12.6-60.6-23.3-113.2L442.5 712h-83.2c-45.8 0-83.3.4-83.3.8zM1364.5 818c28 2.6 43.5 12.5 50.6 32.5 3 8.3 3.8 29.1 1.5 38.8-4.4 18.6-16.3 30.4-36.3 35.9-7.3 2-10.5 2.2-52.5 2.6l-44.8.4V817h35.3c19.3 0 40.2.5 46.2 1zm-473.8 8c40.4 2.5 66.1 12.4 85.8 33.1 14.1 14.9 22.5 34 27.2 61.4 2.8 17 2.6 59.4-.5 76.4-10.2 57-42 88.6-97.3 96.7-8.1 1.1-19.2 1.6-39.8 1.8l-28.6.1-.3-135.3L837 825h18.7c10.4 0 26.1.5 35 1z"/></svg>