<?xml version="1.0" encoding="UTF-8" standalone="no"?>
<svg
   xmlns:dc="http://purl.org/dc/elements/1.1/"
   xmlns:cc="http://creativecommons.org/ns#"
   xmlns:rdf="http://www.w3.org/1999/02/22-rdf-syntax-ns#"
   xmlns:svg="http://www.w3.org/2000/svg"
   xmlns="http://www.w3.org/2000/svg"
   id="svg4"
   version="1.1"
   height="34.1"
   width="117.2"
   viewBox="486.1 404.3 117.2 34.099998"
   role="img">
   <path
   fill="currentColor"
   d="M590.6 412.4l2.6-1v6l5.3-1.9v-8l-8 2.9v2zm4.8-8.1c-4.4 0-7.9 3.6-7.9 8s3.6 8 7.9 8c4.4 0 7.9-3.6 7.9-8s-3.5-8-7.9-8zm0 14.8c-3.7 0-6.8-3-6.8-6.8s3-6.8 6.8-6.8c3.7 0 6.8 3 6.8 6.8s-3.1 6.8-6.8 6.8zm-17.8 6.3c2.9-1.1 6-3.6 6-8.6 0-6.2-4.5-9.4-12.4-9.4h-13.4v10.7h-.1c-1.6-6.5-7.1-10.7-17.1-10.7h-18.9l-2.9 12.6c-.6 2.6-1.1 5.9-1.1 5.9h-.1s-.7-3.7-1.3-6.3l-2.5-12.3h-10.4l-2.5 12.3c-.6 2.6-1.3 6.3-1.3 6.3h-.1s-.5-3.3-1.1-5.9l-2.9-12.6h-9.4l8.3 31h9.4l4.7-19.9h.1l4.7 19.9h9.3l6.9-25.7h.1v25.7h10.6c10.1 0 15.7-4.6 17.4-11.3h.1v11.3h8.6v-10.9h.7c1 0 3.4-.1 4.8 2.1l5.3 8.8h9.2l-4.8-8c-1.6-2.8-2.9-4.3-3.9-5zm-36.5 5.9h-2.6v-16.9h2.4c5.7 0 8.2 2.5 8.2 8.3 0 5.6-2.6 8.6-8 8.6zm30-10.5h-4.7v-6.9h4.4c2.9 0 4.1 1.2 4.1 3.5 0 2.1-1.2 3.4-3.8 3.4z" />
   WDR-Logo
</svg>
